<mxfile host="app.diagrams.net" modified="2024-01-28T04:17:10.839Z" agent="Mozilla/5.0 (Linux; Android 10; BAH4-W09 Build/HUAWEIBAH4-W09) AppleWebKit/537.36 (KHTML, like Gecko) Chrome/92.0.4515.105 Safari/537.36" version="23.0.2" etag="I0NgCacI8sKLSio_sLXH" type="github">
  <diagram name="第 1 页" id="ypCvfH5SSp_hDkfZA8Yo">
    <mxGraphModel>
      <root>
        <mxCell id="0" />
        <mxCell id="1" parent="0" />
      </root>
    </mxGraphModel>
  </diagram>
</mxfile>
